<svg width="101" height="69" viewBox="0 0 101 69" fill="none" xmlns="http://www.w3.org/2000/svg">
<path opacity="0.5" fill-rule="evenodd" clip-rule="evenodd" d="M71.863 14.2191C70.4798 21.781 66.4274 28.5365 60.5974 32.9997C54.7673 37.4627 47.637 39.2678 40.7753 38.0177C33.9136 36.7676 27.8823 32.5647 24.0084 26.3338C20.1345 20.1027 18.7352 12.354 20.1184 4.7921C20.1184 4.7921 33.7617 13.7226 45.9907 9.50558C58.2197 5.28856 71.863 14.2191 71.863 14.2191ZM76.9722 35.1823C75.0295 37.9586 72.8488 40.4035 70.5313 42.379C69.1387 43.302 67.9489 44.1887 66.8453 45.0111L66.8452 45.0112C61.0602 49.3224 57.646 51.8668 39.8329 48.6216C21.2474 45.2356 19.3438 42.2899 14.7089 35.1175L14.7088 35.1174C14.054 34.1042 13.3447 33.0066 12.5262 31.8114C5.91345 22.1565 7.00438 13.8474 8.90147 3.47602L16.2936 4.82273C13.5913 19.5958 18.6481 27.8506 18.6481 27.8506C18.6481 27.8506 22.6235 38.3075 41.1037 41.6742C59.5839 45.041 65.8858 36.4564 65.8858 36.4564C65.8858 36.4564 74.1624 27.0389 76.3877 14.8729L84.1361 16.2845C85.1467 16.1635 86.1782 16.1632 87.2065 16.2882C89.7982 16.6032 92.2308 17.6969 94.1431 19.4069C96.0555 21.117 97.3454 23.3522 97.8217 25.7807C98.2979 28.2092 97.935 30.7016 96.7867 32.8877C95.6385 35.0739 93.766 36.8374 91.4477 37.9163C89.1292 38.9951 86.4883 39.332 83.917 38.8768C81.3457 38.4217 78.9809 37.1985 77.1741 35.3893C77.1058 35.321 77.0385 35.252 76.9722 35.1823ZM83.2305 22.6448C84.2474 22.1735 85.3967 21.9942 86.5376 22.1329C87.7943 22.2856 88.9737 22.8159 89.9009 23.645C90.8282 24.4742 91.4538 25.558 91.6847 26.7355C91.9155 27.913 91.7396 29.1215 91.1828 30.1815C90.6259 31.2415 89.7181 32.0965 88.5941 32.6196C87.4699 33.1428 86.1894 33.3061 84.9427 33.0854C83.6958 32.8647 82.5493 32.2717 81.6732 31.3945C81.1096 30.8301 80.6772 30.1676 80.3982 29.4508C81.4974 27.2824 82.4526 24.9986 83.2305 22.6448ZM5.10191 47.682L72.5744 59.9743C73.8447 60.2057 74.6611 61.5605 74.3977 63.0004C74.1343 64.4402 72.891 65.4198 71.6206 65.1883L4.14818 52.896C2.87782 52.6646 2.06148 51.3098 2.32485 49.87C2.58821 48.4301 3.83155 47.4506 5.10191 47.682Z" fill="#F9D9AA"/>
</svg>
